<svg width="27" height="23" viewBox="0 0 27 23" fill="none" xmlns="http://www.w3.org/2000/svg">
<path d="M26.7333 21.6439C26.7333 21.9151 26.6253 22.1753 26.4329 22.3671C26.2406 22.5589 25.9797 22.6666 25.7077 22.6666H1.09229C0.820275 22.6666 0.559399 22.5589 0.367054 22.3671C0.174709 22.1753 0.0666504 21.9151 0.0666504 21.6439C0.0666504 21.3727 0.174709 21.1125 0.367054 20.9207C0.559399 20.7289 0.820275 20.6212 1.09229 20.6212H25.7077C25.9797 20.6212 26.2406 20.7289 26.4329 20.9207C26.6253 21.1125 26.7333 21.3727 26.7333 21.6439ZM26.7333 2.21208V16.5303C26.7333 17.0728 26.5172 17.593 26.1325 17.9766C25.7478 18.3602 25.2261 18.5757 24.682 18.5757H2.11793C1.5739 18.5757 1.05215 18.3602 0.667457 17.9766C0.282767 17.593 0.0666504 17.0728 0.0666504 16.5303V2.21208C0.0666504 1.66959 0.282767 1.14932 0.667457 0.765726C1.05215 0.382129 1.5739 0.166626 2.11793 0.166626H24.682C25.2261 0.166626 25.7478 0.382129 26.1325 0.765726C26.5172 1.14932 26.7333 1.66959 26.7333 2.21208ZM18.0154 9.37117C18.0153 9.20684 17.9756 9.04494 17.8995 8.89918C17.8234 8.75343 17.7132 8.6281 17.5782 8.53381L12.45 4.95427C12.2963 4.84692 12.1161 4.78367 11.9288 4.77139C11.7416 4.75911 11.5546 4.79828 11.3882 4.88463C11.2217 4.97098 11.0822 5.1012 10.9848 5.26112C10.8875 5.42104 10.8359 5.60453 10.8359 5.79163V9.37117V12.9507C10.8359 13.1378 10.8875 13.3213 10.9848 13.4812C11.0822 13.6411 11.2217 13.7714 11.3882 13.8577C11.5546 13.9441 11.7416 13.9832 11.9288 13.971C12.1161 13.9587 12.2963 13.8954 12.45 13.7881L17.5782 10.2085C17.7132 10.1142 17.8234 9.98892 17.8995 9.84316C17.9756 9.6974 18.0153 9.5355 18.0154 9.37117Z" fill="url(#paint0_linear_70844_2403)"/>
<defs>
<linearGradient id="paint0_linear_70844_2403" x1="13.4" y1="0.166626" x2="13.4" y2="22.6666" gradientUnits="userSpaceOnUse">
<stop stop-color="#F8E889"/>
<stop offset="1" stop-color="#E4B764"/>
</linearGradient>
</defs>
</svg>
