<svg width="20" height="22" viewBox="0 0 20 22" fill="none" xmlns="http://www.w3.org/2000/svg">
<path fill-rule="evenodd" clip-rule="evenodd" d="M3.15793 0.333374C2.32039 0.333374 1.51716 0.670516 0.924936 1.27063C0.33271 1.87075 0 2.68468 0 3.53337V18.4667C0 19.3154 0.33271 20.1293 0.924936 20.7294C1.51716 21.3296 2.32039 21.6667 3.15793 21.6667H9.47379C10.3113 21.6667 11.1146 21.3296 11.7068 20.7294C12.299 20.1293 12.6317 19.3154 12.6317 18.4667V3.53337C12.6317 2.68468 12.299 1.87075 11.7068 1.27063C11.1146 0.670516 10.3113 0.333374 9.47379 0.333374H3.15793ZM13.9928 5.97924C14.1902 5.77927 14.4579 5.66694 14.737 5.66694C15.0161 5.66694 15.2838 5.77927 15.4812 5.97924L19.6918 10.2459C19.8891 10.4459 20 10.7172 20 11C20 11.2829 19.8891 11.5541 19.6918 11.7542L15.4812 16.0208C15.2827 16.2151 15.0168 16.3227 14.7408 16.3202C14.4648 16.3178 14.2008 16.2056 14.0056 16.0078C13.8104 15.8101 13.6997 15.5425 13.6973 15.2629C13.6949 14.9832 13.801 14.7137 13.9928 14.5126L16.4065 12.0667H7.3685C7.08933 12.0667 6.82158 11.9543 6.62417 11.7543C6.42676 11.5542 6.31586 11.2829 6.31586 11C6.31586 10.7171 6.42676 10.4458 6.62417 10.2458C6.82158 10.0458 7.08933 9.93337 7.3685 9.93337H16.4065L13.9928 7.48751C13.7954 7.28748 13.6846 7.01622 13.6846 6.73337C13.6846 6.45053 13.7954 6.17927 13.9928 5.97924Z" fill="url(#paint0_linear_70842_1568)"/>
<defs>
<linearGradient id="paint0_linear_70842_1568" x1="10" y1="0.333374" x2="10" y2="21.6667" gradientUnits="userSpaceOnUse">
<stop stop-color="#5C5C5C"/>
<stop offset="1"/>
</linearGradient>
</defs>
</svg>
