<svg width="22" height="28" viewBox="0 0 22 28" fill="none" xmlns="http://www.w3.org/2000/svg">
<path fill-rule="evenodd" clip-rule="evenodd" d="M4.22457 0.666626H20.0863C20.6101 0.666626 21.0333 1.09222 21.0333 1.61901V23.2857C21.0333 23.4166 20.9268 23.5238 20.7965 23.5238H19.1393C19.0091 23.5238 18.9026 23.4166 18.9026 23.2857V2.80948H4.22457C4.09436 2.80948 3.98783 2.70234 3.98783 2.57139V0.904721C3.98783 0.773769 4.09436 0.666626 4.22457 0.666626ZM1.14692 4.47615H16.2984C16.8222 4.47615 17.2454 4.90175 17.2454 5.42853V26.3809C17.2454 26.9077 16.8222 27.3333 16.2984 27.3333H6.27535C4.68576 27.3333 2.81777 27.3333 1.1997 27.3333C0.647417 27.3333 0.199951 26.8867 0.199951 26.3344C0.199951 24.626 0.199951 21.4192 0.199951 21.2232V5.42853C0.199951 4.90175 0.623128 4.47615 1.14692 4.47615ZM13.0134 15.1782C13.0895 15.324 13.1293 15.4858 13.1293 15.6502C13.1293 15.8145 13.0895 15.9764 13.0134 16.1222C12.9373 16.2679 12.8271 16.3933 12.6921 16.4875L7.56393 20.0671C7.41026 20.1744 7.23001 20.2377 7.04279 20.25C6.85557 20.2622 6.66856 20.2231 6.50211 20.1367C6.33566 20.0504 6.19616 19.9202 6.09878 19.7602C6.0014 19.6003 5.94989 19.4168 5.94983 19.2297V15.6502V12.0706C5.94989 11.8835 6.0014 11.7 6.09878 11.5401C6.19616 11.3802 6.33566 11.25 6.50211 11.1636C6.66856 11.0773 6.85557 11.0381 7.04279 11.0504C7.23001 11.0627 7.41026 11.1259 7.56393 11.2333L12.6921 14.8128C12.8271 14.9071 12.9373 15.0324 13.0134 15.1782Z" fill="url(#paint0_linear_70844_2571)"/>
<defs>
<linearGradient id="paint0_linear_70844_2571" x1="10.6166" y1="0.666626" x2="10.6166" y2="27.3333" gradientUnits="userSpaceOnUse">
<stop stop-color="#F8E889"/>
<stop offset="1" stop-color="#E4B764"/>
</linearGradient>
</defs>
</svg>
