<svg width="31" height="30" viewBox="0 0 31 30" fill="none" xmlns="http://www.w3.org/2000/svg">
<g clip-path="url(#clip0_70844_1858)">
<path fill-rule="evenodd" clip-rule="evenodd" d="M15.0458 0.161448C14.8652 0.293542 14.7171 0.536301 14.2311 1.49706L13.637 2.67123L12.3605 2.8574C10.9842 3.05818 10.8041 3.119 10.574 3.46098C10.4298 3.67521 10.3992 4.04249 10.5017 4.32593C10.5346 4.41681 10.9897 4.90603 11.513 5.41303L12.4645 6.33493L12.2362 7.68352L12.008 9.03205L12.1483 9.31538C12.3328 9.68789 12.5982 9.86301 12.9782 9.86301C13.2347 9.86301 13.409 9.78951 14.4372 9.24775L15.6048 8.63248L16.7701 9.24775C17.7943 9.78851 17.9705 9.86301 18.2251 9.86301C18.6035 9.86301 18.8693 9.6873 19.0535 9.31538L19.1938 9.03205L18.9656 7.68329L18.7373 6.33452L19.6529 5.45912C20.1565 4.97759 20.6116 4.49284 20.6642 4.38176C20.8029 4.08904 20.7875 3.69828 20.6278 3.46098C20.3933 3.11254 20.2063 3.04914 18.8331 2.85235L17.5648 2.67065L16.9707 1.49677C16.274 0.12 16.1642 0 15.6009 0C15.3288 0 15.2255 0.0300587 15.0458 0.161448ZM5.36504 2.81243C5.05351 2.95415 4.99119 3.04984 4.35781 4.3591C4.06492 4.96456 3.80023 5.45988 3.76962 5.45988C3.43834 5.45988 1.22677 5.83667 1.06391 5.92092C0.668544 6.12528 0.487979 6.67978 0.672647 7.12239C0.717495 7.23 1.16129 7.70701 1.68844 8.21431L2.6245 9.11513L2.40026 10.4425C2.21266 11.5528 2.18669 11.8036 2.24145 11.976C2.38408 12.4246 2.88415 12.7396 3.30924 12.6483C3.41131 12.6264 3.98771 12.3474 4.59014 12.0283C5.19257 11.7092 5.71468 11.4481 5.75038 11.4481C5.78609 11.4481 6.35873 11.7283 7.02295 12.0707C8.1397 12.6465 8.24863 12.6905 8.46888 12.6552C8.82204 12.5987 9.06773 12.4192 9.21834 12.1077L9.35148 11.8323L9.12712 10.4888L8.90276 9.14536L9.84193 8.19793C10.3585 7.67683 10.8103 7.19278 10.846 7.12227C10.9595 6.898 10.9252 6.43785 10.7788 6.22027C10.554 5.88622 10.3861 5.83045 8.9982 5.62867L7.70382 5.44045L7.12361 4.27309C6.80446 3.63106 6.47739 3.04274 6.39678 2.96566C6.10348 2.68515 5.75777 2.63384 5.36504 2.81243ZM24.9516 2.89233C24.7375 3.01209 24.6639 3.12863 24.1061 4.23211L23.495 5.44074L22.2008 5.63084C20.8155 5.83427 20.6446 5.89092 20.423 6.22027C20.2766 6.43785 20.2423 6.898 20.3558 7.12227C20.3915 7.19278 20.8433 7.67683 21.3598 8.19793L22.299 9.14536L22.0747 10.4888L21.8503 11.8323L21.9784 12.0952C22.1288 12.4039 22.3942 12.6015 22.7302 12.655C22.9538 12.6906 23.0579 12.6487 24.1788 12.0707C24.843 11.7283 25.4162 11.4481 25.4526 11.4481C25.4889 11.4481 26.0136 11.7093 26.6184 12.0286C27.2233 12.3478 27.8013 12.6273 27.9029 12.6496C28.3036 12.7378 28.774 12.4474 28.9379 12.0106C29.0233 11.7831 29.0165 11.7042 28.8031 10.4501L28.5784 9.12916L29.5147 8.2193C30.0298 7.71881 30.4866 7.22431 30.53 7.12039C30.7153 6.67626 30.5174 6.09746 30.1147 5.90613C30.0019 5.85252 29.3369 5.72436 28.6369 5.62133L27.3641 5.43405L26.8195 4.31519C26.1632 2.96677 25.978 2.75818 25.4391 2.76023C25.2879 2.76082 25.0917 2.81401 24.9516 2.89233ZM5.50645 14.1172C4.62907 14.3605 3.89156 15.032 3.56989 15.8804L3.43622 16.2329V20.6067C3.43622 24.9368 3.43746 24.9838 3.56198 25.3132C3.85838 26.0972 4.49012 26.7299 5.27306 27.0267C5.59696 27.1495 5.691 27.1531 9.00559 27.1687L12.4058 27.1848L13.7542 28.5275C14.4958 29.266 15.1602 29.8994 15.2306 29.9351C15.3011 29.9708 15.4677 30 15.6009 30C15.7341 30 15.9007 29.9708 15.9712 29.9351C16.0416 29.8994 16.706 29.2661 17.4476 28.5277L18.7959 27.1853L22.2255 27.169L25.6551 27.1526L25.9801 27.017C26.6223 26.7491 27.3042 26.1055 27.5472 25.5382C27.7903 24.9705 27.7935 24.9065 27.7935 20.6067C27.7935 16.1258 27.7966 16.1752 27.4702 15.5291C27.1955 14.9854 26.6153 14.4695 25.9695 14.1945L25.6551 14.0607L15.7181 14.0508C7.72827 14.0429 5.7274 14.0559 5.50645 14.1172ZM7.6843 17.9207C7.40273 18.0629 7.15891 18.4376 7.15891 18.728C7.15891 19.0184 7.40273 19.393 7.6843 19.5352L7.94589 19.6673H15.6009H23.2559L23.5175 19.5352C23.7991 19.393 24.0429 19.0184 24.0429 18.728C24.0429 18.4376 23.7991 18.0629 23.5175 17.9207L23.2559 17.7886H15.6009H7.94589L7.6843 17.9207ZM7.6843 21.6781C7.40273 21.8203 7.15891 22.1949 7.15891 22.4853C7.15891 22.7758 7.40273 23.1504 7.6843 23.2926L7.94589 23.4247H15.6009H23.2559L23.5175 23.2926C23.7991 23.1504 24.0429 22.7758 24.0429 22.4853C24.0429 22.1949 23.7991 21.8203 23.5175 21.6781L23.2559 21.546H15.6009H7.94589L7.6843 21.6781Z" fill="url(#paint0_linear_70844_1858)"/>
</g>
<defs>
<linearGradient id="paint0_linear_70844_1858" x1="15.6" y1="0" x2="15.6" y2="30" gradientUnits="userSpaceOnUse">
<stop stop-color="#F8E889"/>
<stop offset="1" stop-color="#E4B764"/>
</linearGradient>
<clipPath id="clip0_70844_1858">
<rect width="30" height="30" fill="white" transform="translate(0.599976)"/>
</clipPath>
</defs>
</svg>
