<svg width="30" height="31" viewBox="0 0 30 31" fill="none" xmlns="http://www.w3.org/2000/svg">
<g clip-path="url(#clip0_70839_427)">
<g filter="url(#filter0_dddd_70839_427)">
<g clip-path="url(#clip1_70839_427)">
<path d="M4.70156 9.7384L13.8682 14.6627C14.1762 14.8277 14.5747 14.906 14.9756 14.906C15.3764 14.906 15.7749 14.8277 16.0829 14.6627L25.2496 9.7384C25.8472 9.41696 26.4119 8.16663 25.3156 8.16663H4.63678C3.54045 8.16663 4.10511 9.41696 4.70156 9.7384ZM25.527 12.431L16.0829 17.3528C15.6673 17.5704 15.3764 17.5961 14.9756 17.5961C14.5747 17.5961 14.2838 17.5704 13.8682 17.3528C13.4527 17.1353 5.15011 12.783 4.47178 12.4297C3.99511 12.1804 4 12.4725 4 12.6974V21.6111C4 22.1244 4.69178 22.8333 5.22222 22.8333H24.7778C25.3082 22.8333 26 22.1244 26 21.6111V12.6986C26 12.4737 26.0049 12.1816 25.527 12.431Z" fill="url(#paint0_linear_70839_427)"/>
</g>
</g>
<rect x="16" y="0.5" width="14" height="14" rx="7" fill="url(#paint1_linear_70839_427)"/>
<path d="M20.9521 10.5V9.61364L23.0231 7.69602C23.1992 7.52557 23.3469 7.37216 23.4663 7.2358C23.5875 7.09943 23.6793 6.96591 23.7418 6.83523C23.8043 6.70265 23.8356 6.55966 23.8356 6.40625C23.8356 6.2358 23.7968 6.08902 23.7191 5.96591C23.6415 5.84091 23.5354 5.74527 23.4009 5.67898C23.2665 5.6108 23.114 5.5767 22.9435 5.5767C22.7655 5.5767 22.6102 5.61269 22.4776 5.68466C22.3451 5.75663 22.2428 5.85985 22.1708 5.99432C22.0988 6.12879 22.0629 6.28883 22.0629 6.47443H20.8952C20.8952 6.09375 20.9814 5.76326 21.1538 5.48295C21.3261 5.20265 21.5676 4.9858 21.8782 4.83239C22.1888 4.67898 22.5468 4.60227 22.9521 4.60227C23.3687 4.60227 23.7314 4.67614 24.0401 4.82386C24.3507 4.9697 24.5922 5.17235 24.7646 5.43182C24.9369 5.69129 25.0231 5.98864 25.0231 6.32386C25.0231 6.54356 24.9795 6.76042 24.8924 6.97443C24.8072 7.18845 24.6547 7.42614 24.435 7.6875C24.2153 7.94697 23.9057 8.25852 23.506 8.62216L22.6566 9.45455V9.49432H25.0998V10.5H20.9521Z" fill="#F8E889"/>
</g>
<defs>
<filter id="filter0_dddd_70839_427" x="-7" y="-0.5" width="44" height="56" filterUnits="userSpaceOnUse" color-interpolation-filters="sRGB">
<feFlood flood-opacity="0" result="BackgroundImageFix"/>
<feColorMatrix in="SourceAlpha" type="matrix" values="0 0 0 0 0 0 0 0 0 0 0 0 0 0 0 0 0 0 127 0" result="hardAlpha"/>
<feOffset dy="1"/>
<feGaussianBlur stdDeviation="1"/>
<feColorMatrix type="matrix" values="0 0 0 0 0 0 0 0 0 0 0 0 0 0 0 0 0 0 0.1 0"/>
<feBlend mode="normal" in2="BackgroundImageFix" result="effect1_dropShadow_70839_427"/>
<feColorMatrix in="SourceAlpha" type="matrix" values="0 0 0 0 0 0 0 0 0 0 0 0 0 0 0 0 0 0 127 0" result="hardAlpha"/>
<feOffset dy="4"/>
<feGaussianBlur stdDeviation="2"/>
<feColorMatrix type="matrix" values="0 0 0 0 0 0 0 0 0 0 0 0 0 0 0 0 0 0 0.09 0"/>
<feBlend mode="normal" in2="effect1_dropShadow_70839_427" result="effect2_dropShadow_70839_427"/>
<feColorMatrix in="SourceAlpha" type="matrix" values="0 0 0 0 0 0 0 0 0 0 0 0 0 0 0 0 0 0 127 0" result="hardAlpha"/>
<feOffset dy="10"/>
<feGaussianBlur stdDeviation="3"/>
<feColorMatrix type="matrix" values="0 0 0 0 0 0 0 0 0 0 0 0 0 0 0 0 0 0 0.05 0"/>
<feBlend mode="normal" in2="effect2_dropShadow_70839_427" result="effect3_dropShadow_70839_427"/>
<feColorMatrix in="SourceAlpha" type="matrix" values="0 0 0 0 0 0 0 0 0 0 0 0 0 0 0 0 0 0 127 0" result="hardAlpha"/>
<feOffset dy="18"/>
<feGaussianBlur stdDeviation="3.5"/>
<feColorMatrix type="matrix" values="0 0 0 0 0 0 0 0 0 0 0 0 0 0 0 0 0 0 0.01 0"/>
<feBlend mode="normal" in2="effect3_dropShadow_70839_427" result="effect4_dropShadow_70839_427"/>
<feBlend mode="normal" in="SourceGraphic" in2="effect4_dropShadow_70839_427" result="shape"/>
</filter>
<linearGradient id="paint0_linear_70839_427" x1="15" y1="8.16663" x2="15" y2="22.8333" gradientUnits="userSpaceOnUse">
<stop stop-color="#F8E889"/>
<stop offset="1" stop-color="#E4B764"/>
</linearGradient>
<linearGradient id="paint1_linear_70839_427" x1="23" y1="0.5" x2="23" y2="14.5" gradientUnits="userSpaceOnUse">
<stop stop-color="#FF6761"/>
<stop offset="1" stop-color="#FF1D1D"/>
</linearGradient>
<clipPath id="clip0_70839_427">
<rect width="30" height="30" fill="white" transform="translate(0 0.5)"/>
</clipPath>
<clipPath id="clip1_70839_427">
<rect width="22" height="22" fill="white" transform="translate(4 4.5)"/>
</clipPath>
</defs>
</svg>
