<svg width="30" height="31" viewBox="0 0 30 31" fill="none" xmlns="http://www.w3.org/2000/svg">
<g clip-path="url(#clip0_70839_420)">
<g filter="url(#filter0_dddd_70839_420)">
<g clip-path="url(#clip1_70839_420)">
<g clip-path="url(#clip2_70839_420)">
<path d="M12.7594 23.4507C13.3093 23.3344 16.6601 23.3344 17.21 23.4507C17.6801 23.5593 18.1885 23.813 18.1885 24.3669C18.1611 24.8943 17.8517 25.3618 17.4243 25.6587C16.87 26.0908 16.2195 26.3644 15.5395 26.463C15.1635 26.5118 14.7939 26.5129 14.431 26.463C13.7499 26.3644 13.0994 26.0908 12.5462 25.6576C12.1177 25.3618 11.8083 24.8943 11.7809 24.3669C11.7809 23.813 12.2893 23.5593 12.7594 23.4507ZM15.0496 4.5C17.3378 4.5 19.6752 5.58572 21.0636 7.38713C21.9644 8.54708 22.3777 9.70592 22.3777 11.5073V11.976C22.3777 13.3575 22.7428 14.1718 23.5464 15.1102C24.1553 15.8015 24.3499 16.6889 24.3499 17.6516C24.3499 18.6133 24.034 19.5262 23.401 20.2673C22.5723 21.1558 21.4036 21.7231 20.2109 21.8217C18.4824 21.969 16.7529 22.0931 15.0005 22.0931C13.2469 22.0931 11.5185 22.0189 9.79003 21.8217C8.5962 21.7231 7.42752 21.1558 6.59993 20.2673C5.96694 19.5262 5.6499 18.6133 5.6499 17.6516C5.6499 16.6889 5.84559 15.8015 6.45344 15.1102C7.28212 14.1718 7.62321 13.3575 7.62321 11.976V11.5073C7.62321 9.65717 8.08457 8.44737 9.0346 7.26305C10.4471 5.53587 12.7112 4.5 14.9513 4.5H15.0496Z" fill="url(#paint0_linear_70839_420)"/>
</g>
</g>
</g>
<rect x="16" y="0.5" width="14" height="14" rx="7" fill="url(#paint1_linear_70839_420)"/>
<path d="M21.2919 4.68182V10.5H20.0618V5.84943H20.0277L18.6953 6.68466V5.59375L20.1357 4.68182H21.2919ZM24.956 10.6278C24.4673 10.6259 24.0469 10.5057 23.6946 10.267C23.3442 10.0284 23.0743 9.68277 22.8849 9.23011C22.6974 8.77746 22.6046 8.23295 22.6065 7.59659C22.6065 6.96212 22.7003 6.4214 22.8878 5.97443C23.0772 5.52746 23.3471 5.1875 23.6974 4.95455C24.0497 4.7197 24.4692 4.60227 24.956 4.60227C25.4427 4.60227 25.8613 4.7197 26.2116 4.95455C26.5639 5.18939 26.8348 5.5303 27.0241 5.97727C27.2135 6.42235 27.3073 6.96212 27.3054 7.59659C27.3054 8.23485 27.2107 8.7803 27.0213 9.23295C26.8338 9.68561 26.5649 10.0312 26.2145 10.2699C25.8641 10.5085 25.4446 10.6278 24.956 10.6278ZM24.956 9.60795C25.2893 9.60795 25.5554 9.44034 25.7543 9.10511C25.9531 8.76989 26.0516 8.26705 26.0497 7.59659C26.0497 7.1553 26.0043 6.78788 25.9134 6.49432C25.8243 6.20076 25.6974 5.98011 25.5327 5.83239C25.3698 5.68466 25.1776 5.6108 24.956 5.6108C24.6245 5.6108 24.3594 5.77652 24.1605 6.10795C23.9616 6.43939 23.8613 6.93561 23.8594 7.59659C23.8594 8.04356 23.9039 8.41667 23.9929 8.71591C24.0838 9.01326 24.2116 9.23674 24.3764 9.38636C24.5412 9.53409 24.7344 9.60795 24.956 9.60795Z" fill="#F8E889"/>
</g>
<defs>
<filter id="filter0_dddd_70839_420" x="-7" y="-0.5" width="44" height="56" filterUnits="userSpaceOnUse" color-interpolation-filters="sRGB">
<feFlood flood-opacity="0" result="BackgroundImageFix"/>
<feColorMatrix in="SourceAlpha" type="matrix" values="0 0 0 0 0 0 0 0 0 0 0 0 0 0 0 0 0 0 127 0" result="hardAlpha"/>
<feOffset dy="1"/>
<feGaussianBlur stdDeviation="1"/>
<feColorMatrix type="matrix" values="0 0 0 0 0 0 0 0 0 0 0 0 0 0 0 0 0 0 0.1 0"/>
<feBlend mode="normal" in2="BackgroundImageFix" result="effect1_dropShadow_70839_420"/>
<feColorMatrix in="SourceAlpha" type="matrix" values="0 0 0 0 0 0 0 0 0 0 0 0 0 0 0 0 0 0 127 0" result="hardAlpha"/>
<feOffset dy="4"/>
<feGaussianBlur stdDeviation="2"/>
<feColorMatrix type="matrix" values="0 0 0 0 0 0 0 0 0 0 0 0 0 0 0 0 0 0 0.09 0"/>
<feBlend mode="normal" in2="effect1_dropShadow_70839_420" result="effect2_dropShadow_70839_420"/>
<feColorMatrix in="SourceAlpha" type="matrix" values="0 0 0 0 0 0 0 0 0 0 0 0 0 0 0 0 0 0 127 0" result="hardAlpha"/>
<feOffset dy="10"/>
<feGaussianBlur stdDeviation="3"/>
<feColorMatrix type="matrix" values="0 0 0 0 0 0 0 0 0 0 0 0 0 0 0 0 0 0 0.05 0"/>
<feBlend mode="normal" in2="effect2_dropShadow_70839_420" result="effect3_dropShadow_70839_420"/>
<feColorMatrix in="SourceAlpha" type="matrix" values="0 0 0 0 0 0 0 0 0 0 0 0 0 0 0 0 0 0 127 0" result="hardAlpha"/>
<feOffset dy="18"/>
<feGaussianBlur stdDeviation="3.5"/>
<feColorMatrix type="matrix" values="0 0 0 0 0 0 0 0 0 0 0 0 0 0 0 0 0 0 0.01 0"/>
<feBlend mode="normal" in2="effect3_dropShadow_70839_420" result="effect4_dropShadow_70839_420"/>
<feBlend mode="normal" in="SourceGraphic" in2="effect4_dropShadow_70839_420" result="shape"/>
</filter>
<linearGradient id="paint0_linear_70839_420" x1="14.9999" y1="4.5" x2="14.9999" y2="26.5" gradientUnits="userSpaceOnUse">
<stop stop-color="#F8E889"/>
<stop offset="1" stop-color="#E4B764"/>
</linearGradient>
<linearGradient id="paint1_linear_70839_420" x1="23" y1="0.5" x2="23" y2="14.5" gradientUnits="userSpaceOnUse">
<stop stop-color="#FF6761"/>
<stop offset="1" stop-color="#FF1D1D"/>
</linearGradient>
<clipPath id="clip0_70839_420">
<rect width="30" height="30" fill="white" transform="translate(0 0.5)"/>
</clipPath>
<clipPath id="clip1_70839_420">
<rect width="22" height="22" fill="white" transform="translate(4 4.5)"/>
</clipPath>
<clipPath id="clip2_70839_420">
<rect width="22" height="22" fill="white" transform="translate(4 4.5)"/>
</clipPath>
</defs>
</svg>
