<svg width="20" height="21" viewBox="0 0 22 23" fill="none" xmlns="http://www.w3.org/2000/svg">
<g clip-path="url(#clip0_70840_2800)">
<g clip-path="url(#clip1_70840_2800)">
<path d="M21.4501 17.275C21.4501 19.8569 19.357 21.95 16.7751 21.95C14.1932 21.95 12.1001 19.8569 12.1001 17.275C12.1001 14.693 14.1932 12.6 16.7751 12.6C19.357 12.6 21.4501 14.693 21.4501 17.275Z" fill="url(#paint0_linear_70840_2800)"/>
<path d="M7.92166 14.0476L5.72122 14.0456L5.71264 15.6576L7.9221 15.6609L7.92166 14.0476Z" fill="url(#paint1_linear_70840_2800)"/>
<path d="M2.65046 16.476L2.64298 18.0914H4.8531L4.85244 16.4757L2.65046 16.476Z" fill="url(#paint2_linear_70840_2800)"/>
<path d="M4.84188 14.0456H2.64738L2.64298 15.649C2.7961 15.6925 4.54136 15.6611 4.85244 15.6611C4.85244 15.4426 4.86938 14.1464 4.84188 14.0456Z" fill="url(#paint3_linear_70840_2800)"/>
<path d="M5.71286 11.6153L5.7133 13.2294L7.91638 13.2307L7.92232 11.6206L5.71286 11.6153Z" fill="url(#paint4_linear_70840_2800)"/>
<path d="M5.71286 18.0883L7.9221 18.091L7.92188 16.4788L5.71748 16.476L5.71286 18.0883Z" fill="url(#paint5_linear_70840_2800)"/>
<path d="M13.397 3.81761C13.7926 4.52447 14.9951 4.33769 15.084 3.53161C15.1014 3.37409 15.0884 2.42985 15.0884 2.19181C15.0884 1.84179 15.1458 1.21501 14.992 0.941547C14.8426 0.675567 14.4805 0.430047 14.0132 0.520027C13.6428 0.591087 13.346 0.859487 13.3051 1.22909C13.2872 1.38947 13.3 2.32667 13.3 2.56603C13.3 2.91693 13.2435 3.54349 13.397 3.81761Z" fill="url(#paint6_linear_70840_2800)"/>
<path d="M8.79154 15.6598L10.9816 15.6578L10.981 14.052H8.79154V15.6598Z" fill="url(#paint7_linear_70840_2800)"/>
<path d="M4.85442 13.17L4.85266 11.6155C4.5297 11.6155 2.81194 11.5812 2.64342 11.6272L2.64386 13.2259L4.84364 13.2312L4.85442 13.17Z" fill="url(#paint8_linear_70840_2800)"/>
<path d="M17.1306 9.18517H14.9201L14.9192 10.7359L14.9234 10.8006H17.1254L17.132 10.7359L17.1306 9.18517Z" fill="url(#paint9_linear_70840_2800)"/>
<path d="M19.7627 12.5314C19.4547 12.3501 19.1307 12.1996 18.7952 12.0812C18.7736 11.2228 18.8077 7.86495 18.7866 7.72283L0.980662 7.72811L0.989682 19.4653L11.6357 19.4666C11.7519 19.7762 11.8951 20.0749 12.0645 20.3598C11.2305 20.3618 10.1802 20.3484 9.67198 20.3484H1.80786C1.4123 20.3484 1.15556 20.3684 0.816982 20.2294C0.544402 20.1176 0.359162 19.9423 0.222542 19.7474C0.0425822 19.4917 0.0131023 19.2675 0.0131023 18.9226V4.65977C0.0131023 4.01253 -0.0909578 3.34395 0.287442 2.88943C0.755602 2.32755 1.31396 2.37837 1.97682 2.37837H4.214C4.2184 2.52621 4.2393 2.56383 4.1568 2.65425C3.73462 3.11669 3.66268 3.77185 3.92558 4.32207C4.16296 4.81839 4.77016 5.29359 5.5802 5.29359C6.92484 5.29359 7.86314 3.97711 7.13406 2.82519C6.95058 2.53545 6.93342 2.69451 6.9442 2.37837H12.8299C12.8402 2.68307 12.8349 2.52247 12.633 2.83465C11.9305 3.91969 12.8006 5.29425 14.1952 5.29359C15.5473 5.29315 16.4759 3.97249 15.7497 2.82475C15.566 2.53413 15.5471 2.69297 15.5583 2.37837H17.6485C18.3877 2.37837 18.899 2.33129 19.3366 2.73741C19.4008 2.79703 19.409 2.79615 19.4624 2.86171C19.5891 3.01791 19.6675 3.13495 19.7216 3.34109C19.788 3.59343 19.761 3.96259 19.761 4.23429C19.761 4.23429 19.7766 11.232 19.7627 12.5314Z" fill="url(#paint10_linear_70840_2800)"/>
<path d="M4.77544 3.80705C4.91932 4.07303 5.29046 4.32867 5.75862 4.24199C6.13042 4.17313 6.4195 3.89923 6.46724 3.54393C6.48682 3.39697 6.4745 2.43711 6.4745 2.20875C6.4745 1.85741 6.53346 1.23349 6.38298 0.953427C6.23976 0.686347 5.87148 0.432467 5.40992 0.516287C5.03526 0.584267 4.73804 0.852667 4.69162 1.21457C4.67402 1.35317 4.68634 2.32667 4.68634 2.54931C4.68634 2.88899 4.6331 3.54371 4.77544 3.80705Z" fill="url(#paint11_linear_70840_2800)"/>
<path d="M13.131 13.231L11.9241 13.2312L11.8524 13.2292L11.8522 11.6155L14.0614 11.6197L14.0577 12.5441L13.131 13.231Z" fill="url(#paint12_linear_70840_2800)"/>
<path d="M13.9886 10.8006L14.0581 10.7989L14.0612 9.18869L11.852 9.18517L11.8522 10.7984L11.9241 10.8011L13.9886 10.8006Z" fill="url(#paint13_linear_70840_2800)"/>
<path d="M10.9816 11.6186L8.79154 11.6168L8.7933 13.2252H10.9816V11.6186Z" fill="url(#paint14_linear_70840_2800)"/>
<path d="M16.899 22.5C15.537 22.5 14.2559 21.9652 13.2919 20.9939C12.3287 20.0257 11.7981 18.7358 11.7981 17.3623C11.7981 15.9889 12.3285 14.6979 13.2919 13.7275C14.2561 12.7575 15.5372 12.2234 16.899 12.2234C18.2608 12.2234 19.5418 12.7575 20.5061 13.7275C21.4695 14.6979 21.9999 15.9887 21.9999 17.3623C21.9999 18.736 21.4693 20.0257 20.5061 20.9941C19.5421 21.9652 18.261 22.5 16.899 22.5ZM16.899 13.2853C15.8192 13.2853 14.803 13.7088 14.0381 14.4781C13.274 15.2477 12.8532 16.272 12.8532 17.3623C12.8532 18.4527 13.274 19.4743 14.0381 20.2432C14.8024 21.0137 15.8183 21.4378 16.8988 21.4378C17.9792 21.4378 18.9954 21.0137 19.7594 20.2432C20.5235 19.4728 20.9443 18.4496 20.9443 17.3621C20.9443 16.2747 20.5235 15.2488 19.7594 14.4779C18.9947 13.7088 17.979 13.2853 16.899 13.2853Z" fill="url(#paint15_linear_70840_2800)"/>
<path d="M19.9489 15.3153C19.8334 15.1764 19.6745 15.0957 19.5091 15.0763C19.3885 15.0618 19.2645 15.0801 19.1507 15.1324C19.0959 15.1573 19.0438 15.1899 18.9954 15.2303L15.7986 17.9L14.9613 17.1899C14.7078 16.976 14.3439 16.9824 14.0975 17.1864C14.0654 17.213 14.0353 17.2429 14.0078 17.2759C13.8043 17.5208 13.801 17.8666 13.9792 18.1132C14.0111 18.1574 14.0489 18.1984 14.0923 18.2351L15.3647 19.3127C15.572 19.4867 15.8525 19.5148 16.083 19.4079C16.1398 19.382 16.1937 19.3474 16.2425 19.3052L19.8651 16.2756C19.9524 16.2019 20.0166 16.1103 20.0571 16.0107C20.0672 15.986 20.0756 15.9607 20.0826 15.9354C20.1401 15.7267 20.0974 15.4939 19.9489 15.3153Z" fill="#F8E889"/>
</g>
</g>
<defs>
<linearGradient id="paint0_linear_70840_2800" x1="16.7751" y1="12.6" x2="16.7751" y2="21.95" gradientUnits="userSpaceOnUse">
<stop stop-color="#FF6761"/>
<stop offset="1" stop-color="#FF1D1D"/>
</linearGradient>
<linearGradient id="paint1_linear_70840_2800" x1="11" y1="0.5" x2="11" y2="22.5" gradientUnits="userSpaceOnUse">
<stop stop-color="#F8E889"/>
<stop offset="1" stop-color="#E4B764"/>
</linearGradient>
<linearGradient id="paint2_linear_70840_2800" x1="11" y1="0.5" x2="11" y2="22.5" gradientUnits="userSpaceOnUse">
<stop stop-color="#F8E889"/>
<stop offset="1" stop-color="#E4B764"/>
</linearGradient>
<linearGradient id="paint3_linear_70840_2800" x1="11" y1="0.5" x2="11" y2="22.5" gradientUnits="userSpaceOnUse">
<stop stop-color="#F8E889"/>
<stop offset="1" stop-color="#E4B764"/>
</linearGradient>
<linearGradient id="paint4_linear_70840_2800" x1="11" y1="0.5" x2="11" y2="22.5" gradientUnits="userSpaceOnUse">
<stop stop-color="#F8E889"/>
<stop offset="1" stop-color="#E4B764"/>
</linearGradient>
<linearGradient id="paint5_linear_70840_2800" x1="11" y1="0.5" x2="11" y2="22.5" gradientUnits="userSpaceOnUse">
<stop stop-color="#F8E889"/>
<stop offset="1" stop-color="#E4B764"/>
</linearGradient>
<linearGradient id="paint6_linear_70840_2800" x1="11" y1="0.5" x2="11" y2="22.5" gradientUnits="userSpaceOnUse">
<stop stop-color="#F8E889"/>
<stop offset="1" stop-color="#E4B764"/>
</linearGradient>
<linearGradient id="paint7_linear_70840_2800" x1="11" y1="0.5" x2="11" y2="22.5" gradientUnits="userSpaceOnUse">
<stop stop-color="#F8E889"/>
<stop offset="1" stop-color="#E4B764"/>
</linearGradient>
<linearGradient id="paint8_linear_70840_2800" x1="11" y1="0.5" x2="11" y2="22.5" gradientUnits="userSpaceOnUse">
<stop stop-color="#F8E889"/>
<stop offset="1" stop-color="#E4B764"/>
</linearGradient>
<linearGradient id="paint9_linear_70840_2800" x1="11" y1="0.5" x2="11" y2="22.5" gradientUnits="userSpaceOnUse">
<stop stop-color="#F8E889"/>
<stop offset="1" stop-color="#E4B764"/>
</linearGradient>
<linearGradient id="paint10_linear_70840_2800" x1="11" y1="0.5" x2="11" y2="22.5" gradientUnits="userSpaceOnUse">
<stop stop-color="#F8E889"/>
<stop offset="1" stop-color="#E4B764"/>
</linearGradient>
<linearGradient id="paint11_linear_70840_2800" x1="11" y1="0.5" x2="11" y2="22.5" gradientUnits="userSpaceOnUse">
<stop stop-color="#F8E889"/>
<stop offset="1" stop-color="#E4B764"/>
</linearGradient>
<linearGradient id="paint12_linear_70840_2800" x1="11" y1="0.5" x2="11" y2="22.5" gradientUnits="userSpaceOnUse">
<stop stop-color="#F8E889"/>
<stop offset="1" stop-color="#E4B764"/>
</linearGradient>
<linearGradient id="paint13_linear_70840_2800" x1="11" y1="0.5" x2="11" y2="22.5" gradientUnits="userSpaceOnUse">
<stop stop-color="#F8E889"/>
<stop offset="1" stop-color="#E4B764"/>
</linearGradient>
<linearGradient id="paint14_linear_70840_2800" x1="11" y1="0.5" x2="11" y2="22.5" gradientUnits="userSpaceOnUse">
<stop stop-color="#F8E889"/>
<stop offset="1" stop-color="#E4B764"/>
</linearGradient>
<linearGradient id="paint15_linear_70840_2800" x1="11" y1="0.5" x2="11" y2="22.5" gradientUnits="userSpaceOnUse">
<stop stop-color="#F8E889"/>
<stop offset="1" stop-color="#E4B764"/>
</linearGradient>
<clipPath id="clip0_70840_2800">
<rect width="22" height="22" fill="white" transform="translate(0 0.5)"/>
</clipPath>
<clipPath id="clip1_70840_2800">
<rect width="22" height="22" fill="white" transform="translate(0 0.5)"/>
</clipPath>
</defs>
</svg>
