<svg width="28" height="22" viewBox="0 0 28 22" fill="none" xmlns="http://www.w3.org/2000/svg">
<path d="M0.466797 2.87496C0.466797 1.38538 1.6668 0.166626 3.13346 0.166626H24.4668C25.174 0.166626 25.8523 0.451967 26.3524 0.959878C26.8525 1.46779 27.1335 2.15666 27.1335 2.87496V19.125C27.1335 19.8433 26.8525 20.5321 26.3524 21.04C25.8523 21.548 25.174 21.8333 24.4668 21.8333H3.13346C2.42622 21.8333 1.74794 21.548 1.24785 21.04C0.747749 20.5321 0.466797 19.8433 0.466797 19.125V2.87496ZM8.4668 2.87496V19.125H19.1335V2.87496H8.4668ZM3.13346 4.22913V6.93746H5.80013V4.22913H3.13346ZM3.13346 9.64579V12.3541H5.80013V9.64579H3.13346ZM3.13346 15.0625V17.7708H5.80013V15.0625H3.13346ZM21.8001 4.22913V6.93746H24.4668V4.22913H21.8001ZM21.8001 9.64579V12.3541H24.4668V9.64579H21.8001ZM21.8001 15.0625V17.7708H24.4668V15.0625H21.8001ZM11.1335 6.93746L17.8001 11L11.1335 15.0625V6.93746Z" fill="url(#paint0_linear_70844_2596)"/>
<defs>
<linearGradient id="paint0_linear_70844_2596" x1="13.8001" y1="0.166626" x2="13.8001" y2="21.8333" gradientUnits="userSpaceOnUse">
<stop stop-color="#F8E889"/>
<stop offset="1" stop-color="#E4B764"/>
</linearGradient>
</defs>
</svg>
