<svg width="28" height="29" viewBox="0 0 28 29" fill="none" xmlns="http://www.w3.org/2000/svg">
<g clip-path="url(#clip0_70833_600)">
<path d="M14 28.5C21.732 28.5 28 22.232 28 14.5C28 6.76801 21.732 0.5 14 0.5C6.26802 0.5 0 6.76801 0 14.5C0 22.232 6.26802 28.5 14 28.5Z" fill="#FF1D1D"/>
<path d="M14 7.8042L15.511 12.4542H20.4003L16.4447 15.3281L17.9556 19.9781L14 17.1043L10.0445 19.9781L11.5554 15.3281L7.59985 12.4542H12.4891L14 7.8042Z" fill="#F8E889"/>
<path opacity="0.25" d="M22.8799 5.34092C24.9228 8.89006 20.7471 12.8787 15.3863 15.9645C10.0254 19.0504 3.56429 20.5224 2.39668 17.2779C1.00997 13.4248 2.79246 6.73122 8.15337 3.64537C13.5142 0.559524 20.8369 1.79181 22.8799 5.34092Z" fill="white"/>
</g>
<defs>
<clipPath id="clip0_70833_600">
<rect width="28" height="28" fill="white" transform="translate(0 0.5)"/>
</clipPath>
</defs>
</svg>
